<svg width="24" height="24" fill="none" xmlns="http://www.w3.org/2000/svg"><path d="M17.286 14.591l-6.641-1.238 1.68 2.235a4.184 4.184 0 01-1.044.132c-2.495 0-4.243-1.954-3.803-4.604a4.557 4.557 0 011.436-2.508L6.287 8.3l.636-3.021c-1.944 1.407-3.398 3.42-3.792 5.815-.825 4.995 2.326 8.514 7.488 8.514a9.908 9.908 0 004.136-.789L16.395 21l.89-6.409z" fill="#172B4D"/><path d="M13.34 3.156a10.923 10.923 0 00-4.454.997L8.053 3l-.987 4.69 4.777.559-.687-.95a5.12 5.12 0 011.573-.245c2.515 0 4.177 2.086 3.796 4.396a4.577 4.577 0 01-.833 1.915l2.69.5-.404 2.932c1.568-1.58 2.566-3.339 2.9-5.359.816-5.029-2.529-8.282-7.538-8.282z" fill="#172B4D"/></svg>