<svg width="400" height="400" fill="none" xmlns="http://www.w3.org/2000/svg"><path fill="#0047B1" d="M401.352 399.998l-80 .27-.27-79.999 80-.27zm-80.271-79.729l-80 .27-.27-79.999 80-.27zm79.729-80.27l-80 .27-.27-79.999 80-.27zm-.27-80l-80 .27-.27-79.999 80-.27zM400.269 80l-80 .27L320 .272l80-.27zm.812 239.998l-80 .27-.27-79.999 80-.27zm-159.728 80.541l-80 .27-.27-79.999 80-.27zm-80 .271l-80 .27-.27-79.999 80-.27z"/><path fill="#0047B1" d="M81.354 401.081l-80 .27-.27-79.999 80-.27zm239.457-160.812l-80 .27-.27-79.999 80-.27zm-.271-79.999l-80 .27-.27-79.999 80-.27zm-79.729 80.27l-80 .27-.27-79.999 80-.27zm.271 80l-80 .27-.27-79.999 80-.27z"/><path fill="#0047B1" d="M161.082 320.81l-80 .27-.27-79.999 80-.27zm160.27 79.458l-80 .27-.27-79.999 80-.27z"/></svg>